<?xml version="1.0" encoding="utf-8"?>
<!-- Generator: Adobe Illustrator 25.3.0, SVG Export Plug-In . SVG Version: 6.00 Build 0)  -->
<svg version="1.1" id="Layer_1" xmlns="http://www.w3.org/2000/svg" xmlns:xlink="http://www.w3.org/1999/xlink" x="0px" y="0px"
	 viewBox="0 0 733.94 631.5" style="enable-background:new 0 0 733.94 631.5;" xml:space="preserve">
<style type="text/css">
	.st0{fill:#27326A;}
	.st1{fill:#FD9D01;}
</style>
<g>
	<path class="st0" d="M372.9,314.5c-2.11,0-3.64,0-5.18,0c-36.36,0-72.73-0.03-109.09,0.06c-3.09,0.01-4.28-0.49-4.26-4.01
		c0.16-29.23,0.14-58.46,0.03-87.69c-0.01-3.18,0.68-4.17,4.06-4.17c71.61,0.11,143.21,0.1,214.82,0c3.39,0,4.41,0.74,4.41,4.3
		c-0.11,87.55-0.1,175.11,0,262.66c0,3.32-0.81,4.22-4.15,4.19c-18.6-0.16-37.2-0.18-55.8,0.01c-3.46,0.04-4.06-1.06-4.04-4.23
		c0.14-20.54,0.07-41.08,0.07-61.68c-1.71-0.57-2.1,1.08-2.86,1.83c-33.55,33.06-73.17,54.64-119.98,61.19
		c-82.45,11.54-152.07-13.03-207-76.35c-40.31-46.47-55.75-100.99-52.01-161.86c6.31-102.61,84.39-172.6,149.8-193.85
		c22.53-7.32,45.56-11.31,69.19-11.38c52.86-0.16,105.73,0.01,158.6-0.16c4.01-0.01,4.48,1.36,4.48,4.75
		c-0.04,28.95,0.01,57.9,0.26,86.85c0.03,3.66-1.09,4.25-4.43,4.25c-52.03-0.11-104.05-0.15-156.08-0.05
		c-52.03,0.1-99.47,31.38-117.84,79.98c-32.04,84.75,24.26,157.74,90.33,172.07c60.26,13.07,121.55-17.87,145.7-74.26
		C372.19,316.36,372.42,315.72,372.9,314.5z"/>
	<path class="st1" d="M663.54,347.23c0,36.22-0.04,72.44,0.06,108.65c0.01,4.12-0.51,6.64-5.31,8.07
		c-14.45,4.31-28.69,9.38-43,14.15c-11.28,3.76-22.57,7.5-33.85,11.29c-1.25,0.42-2.43,0.55-3.68,0.13
		c-20.88-6.99-41.76-13.99-62.65-20.96c-5.65-1.88-11.27-3.9-17.03-5.41c-3.21-0.84-4.16-2.32-4.15-5.54
		c0.1-49.78,0.08-99.56,0.08-149.35c0-24.33,0.06-48.66-0.1-72.99c-0.02-2.92,1.21-4.26,3.48-5.34
		c26.42-12.58,52.84-25.15,79.22-37.83c1.58-0.76,2.53-0.8,4.13-0.04c26.39,12.68,52.83,25.28,79.3,37.79
		c2.86,1.35,3.56,3.24,3.55,6.21C663.5,273.12,663.53,310.18,663.54,347.23z"/>
	<path class="st1" d="M663.76,145.5c0,13.98-0.05,27.97,0.03,41.95c0.02,3.26-0.2,4.25-3.82,2.31
		c-25.95-13.86-52.06-27.41-78.04-41.19c-2.03-1.07-3.24-1-5.26,0.05c-26.67,13.95-53.44,27.71-80.13,41.63
		c-2.17,1.13-2.59,0.86-2.59-1.45c0.04-28.39,0.07-56.78-0.02-85.17c-0.01-2.22,1.12-3.34,2.59-4.34
		c18.51-12.53,37.05-25.03,55.59-37.52c8.46-5.7,16.98-11.31,25.38-17.12c1.54-1.06,2.34-1.02,3.87,0.01
		c16.34,11.01,32.77,21.88,49.16,32.82c9.84,6.57,19.62,13.24,29.5,19.76c2.67,1.76,3.88,3.75,3.83,7.13
		C663.64,118.09,663.76,131.8,663.76,145.5z M610.52,93.29c0,11.39,0.02,21.97-0.03,32.54c-0.01,1.62,1.14,2.24,2.17,2.77
		c7.36,3.8,14.81,7.42,22.13,11.29c2.68,1.42,3.37,0.88,3.33-2.03c-0.11-7.55-0.08-15.1,0.03-22.64c0.03-1.86-0.43-3.2-1.97-4.26
		C627.89,105.28,619.63,99.57,610.52,93.29z M546.77,93.42c-8.88,6.16-16.93,11.7-24.92,17.32c-1.28,0.9-2.49,1.73-2.42,3.93
		c0.26,7.82,0.24,15.66,0.07,23.49c-0.06,2.85,0.73,3.23,3.06,2.01c7.22-3.79,14.47-7.53,21.7-11.32c1.2-0.63,2.52-1.23,2.52-2.97
		C546.77,115.29,546.77,104.73,546.77,93.42z"/>
	<path class="st0" d="M115.25,565.03c0,3.21-0.25,6.45,0.06,9.64c0.33,3.33-0.76,5.6-3.58,7.3c-11.72,7.1-24.07,8.16-36.44,2.55
		c-12.07-5.47-18.71-15.51-19.29-28.7c-0.6-13.73,5.51-24.43,17.65-30.97c12.35-6.66,24.48-5.23,35.92,2.7
		c0.34,0.24,0.73,0.45,1.01,0.75c1.87,2.02,5.83,2.97,5.28,6.16c-0.66,3.83-7.59,7.02-11.78,6.27c-1.82-0.33-3.38-1.22-4.97-2.12
		c-7.61-4.31-15.97-3.42-22.08,2.26c-6.01,5.59-7.72,13.9-4.32,21.06c3.46,7.3,11.91,11.82,20.1,10.68
		c1.65-0.23,3.26-0.76,4.91-1.02c2.53-0.38,2.41-2.14,2.42-4.05c0.01-1.85-0.22-2.85-2.44-3.43c-6.2-1.63-8.39-5.56-7.64-12
		c0.22-1.9,1.19-1.86,2.5-1.86c6.71,0.01,13.42,0.07,20.13-0.03c2.03-0.03,2.66,0.68,2.6,2.66
		C115.17,556.92,115.26,560.98,115.25,565.03z"/>
	<path class="st0" d="M171.04,531.45c-0.04,17.2-0.06,34.39-0.12,51.59c-0.01,2.06,0.91,4.43-2.99,4.34
		c-3.58-0.09-2.81-2.21-2.81-4.17c-0.01-19.02-0.04-38.03,0.07-57.05c0.01-1.56-1.39-4.07,1.2-4.65c2.54-0.57,5.42-0.68,7.39,1.67
		c1.52,1.82,2.78,3.84,4.14,5.79c10.47,15,20.93,30,31.42,44.98c0.43,0.61,0.64,1.54,2.18,1.7c0-1.94,0-3.81,0-5.68
		c0-14.96,0-29.92-0.01-44.88c0-1.93-0.51-3.81,2.72-3.88c3.33-0.07,3.09,1.72,3.08,3.96c-0.04,18.74,0.02,37.47-0.12,56.21
		c-0.01,1.92,1.68,4.78-1.32,5.78c-3.26,1.08-5.22-0.99-7.04-3.63c-12.22-17.69-24.58-35.27-36.89-52.89
		c-0.28-0.17-0.56-0.35-0.84-0.52C171.08,530.56,171.06,531,171.04,531.45z"/>
	<path class="st0" d="M552.92,529.18c0,14.55,0,28.03,0,41.52c0,4.61-0.12,9.23,0.06,13.84c0.09,2.32-0.79,2.8-2.9,2.78
		c-2.06-0.02-2.97-0.41-2.96-2.75c0.09-20.13,0.05-40.27,0.07-60.4c0-1.03-0.51-2.54,1.1-2.72c2.48-0.27,5.13-0.54,7.15,1.4
		c1.09,1.05,1.89,2.41,2.77,3.67c10.63,15.22,21.24,30.46,31.91,45.65c0.71,1.02,1.12,3.09,2.84,2.41c1.23-0.49,0.58-2.26,0.58-3.44
		c0.04-15.38,0.04-30.76,0.02-46.14c0-2.04-0.26-3.76,2.85-3.75c2.96,0.01,2.98,1.42,2.97,3.64c-0.06,19.43-0.01,38.87-0.08,58.3
		c0,1.34,1.04,3.5-1.09,3.93c-2.21,0.44-4.48,0.65-6.25-1.93c-8.82-12.91-17.85-25.68-26.8-38.49
		C561.28,541.12,557.4,535.58,552.92,529.18z"/>
	<path class="st0" d="M467.6,554.07c0.13-18.62,15.06-33.46,33.65-33.45c18.94,0.02,33.84,15.21,33.66,34.3
		c-0.18,18.37-15.52,33.26-34.09,33.07C482.33,587.82,467.47,572.64,467.6,554.07z M473.43,554.19
		c0.02,15.53,12.45,27.99,27.93,27.97c15.22-0.02,27.67-12.48,27.73-27.76c0.07-15.35-12.73-28.17-27.96-28
		C485.77,526.57,473.42,538.96,473.43,554.19z"/>
	<path class="st0" d="M370.02,558.42c7.26,9.7,14.24,19.03,21.39,28.57c-4.79,0.82-7.9-0.73-10.45-4.31
		c-4.79-6.7-10.06-13.07-14.73-19.84c-2.4-3.48-5.08-4.83-9.31-4.63c-7.44,0.35-7.45,0.1-7.45,7.47c0,6.29-0.1,12.59,0.05,18.87
		c0.06,2.34-0.84,2.81-2.92,2.74c-1.86-0.06-3.08-0.05-3.06-2.59c0.1-20.27,0.08-40.55,0.01-60.82c-0.01-2.09,0.74-2.62,2.67-2.6
		c6.85,0.08,13.71-0.17,20.55,0.09c10.09,0.37,17.25,7.07,18.31,16.72C386.12,547.53,380.3,555.65,370.02,558.42z M359.51,527.24
		c0-0.01,0-0.02,0-0.03c-2.51,0-5.02,0.05-7.53-0.02c-1.63-0.04-2.58,0.28-2.55,2.27c0.1,6.97,0.08,13.95,0.01,20.92
		c-0.02,1.72,0.76,2.14,2.27,2.12c5.44-0.08,10.9,0.22,16.3-0.22c6.63-0.54,11.62-6.41,11.43-12.73
		c-0.19-6.43-5.35-11.8-11.99-12.28C364.82,527.08,362.16,527.24,359.51,527.24z"/>
	<path class="st0" d="M615.35,554.21c0-9.79,0.08-19.58-0.05-29.36c-0.04-2.61,0.48-3.66,3.39-3.61c10.9,0.18,21.81,0.14,32.71,0.02
		c2.53-0.03,3.34,0.69,3.36,3.3c0.02,2.89-1.58,2.7-3.48,2.69c-8.95-0.03-17.9,0.07-26.84-0.06c-2.51-0.04-3.41,0.62-3.32,3.27
		c0.2,5.87,0.16,11.75,0.01,17.61c-0.06,2.38,0.68,3.12,3.07,3.07c6.99-0.14,13.98,0.03,20.97-0.09c2.26-0.04,3.14,0.45,3.14,2.95
		c-0.01,2.49-0.87,3.03-3.15,2.99c-6.99-0.12-13.98,0.05-20.97-0.09c-2.38-0.05-3.11,0.68-3.05,3.06c0.15,6.15,0.16,12.31,0,18.45
		c-0.06,2.38,0.65,3.1,3.03,3.06c8.95-0.12,17.9-0.04,26.84-0.07c2.01-0.01,3.77-0.32,3.76,2.83c-0.01,2.92-1.33,3.05-3.58,3.03
		c-10.9-0.08-21.81-0.14-32.71,0.03c-2.72,0.04-3.21-0.86-3.18-3.32C615.42,574.07,615.35,564.14,615.35,554.21z"/>
	<path class="st0" d="M290.73,554.1c0-9.78,0.06-19.57-0.04-29.35c-0.02-2.32,0.21-3.55,3.07-3.51c11.04,0.17,22.08,0.11,33.12,0.07
		c2.05-0.01,3.29,0.12,3.3,2.86c0.01,2.86-1.19,3.12-3.48,3.1c-8.8-0.08-17.61,0.08-26.41-0.08c-2.79-0.05-3.96,0.51-3.82,3.61
		c0.26,5.58,0.26,11.19,0,16.77c-0.15,3.12,1.03,3.68,3.82,3.59c6.42-0.2,12.86-0.09,19.29-0.05c1.92,0.01,4.11-0.81,4.12,2.8
		c0.01,3.37-1.76,3.08-3.94,3.06c-6.57-0.05-13.14,0.09-19.71-0.07c-2.59-0.06-3.7,0.45-3.58,3.37c0.24,6,0.22,12.02,0.01,18.03
		c-0.1,2.72,0.88,3.22,3.35,3.18c8.8-0.14,17.61-0.05,26.42-0.05c2.08,0,4.05-0.49,3.97,3.01c-0.07,3.19-1.78,2.81-3.75,2.81
		c-10.76-0.01-21.53-0.09-32.29,0.06c-2.69,0.04-3.56-0.62-3.51-3.44C290.84,573.95,290.73,564.02,290.73,554.1z"/>
	<path class="st0" d="M683.53,520.72c5.86-0.18,10.42,2.5,14.55,6.38c2.13,2,0.87,2.66-0.88,3.42c-2.4,1.04-4.29-0.07-6.2-1.37
		c-5.78-3.94-13.29-3.06-17.8,2.03c-4.45,5.02-3.26,12.22,2.79,15.05c4.66,2.18,9.61,3.74,14.39,5.69
		c9.14,3.74,12.92,9.69,12.06,18.8c-0.79,8.42-6.55,14.68-15.37,16.54c-9.01,1.89-16.94,0.14-23.04-7.27
		c-0.66-0.81-1.96-1.56-1.37-2.79c0.62-1.28,2.14-1.21,3.35-1.24c1.75-0.04,3.17,0.83,4.45,2.02c4.94,4.61,10.82,4.81,16.9,3.21
		c5.52-1.46,9.1-6.1,9.33-11.58c0.25-6.02-2.28-9.79-8.25-12.17c-4.02-1.6-8.09-3.08-12.09-4.71c-9.47-3.86-12.75-9.1-11.33-17.94
		c1.14-7.1,8.7-13.38,16.85-13.99C682.41,520.76,682.97,520.75,683.53,520.72z"/>
	<path class="st0" d="M416.11,520.74c6.6-0.17,11.16,2.52,15.26,6.42c1.78,1.69,1.06,2.44-0.68,3.25c-2.56,1.2-4.54,0.04-6.58-1.35
		c-5.6-3.81-12.96-2.97-17.49,1.93c-4.75,5.13-3.6,12.31,2.71,15.29c4.15,1.96,8.57,3.36,12.86,5c10.19,3.9,14.43,10.06,13.49,19.57
		c-0.87,8.89-7.08,15.04-17.18,16.71c-8.66,1.43-16-0.99-21.67-7.95c-2.08-2.56-0.8-3.31,1.66-3.61c1.93-0.23,3.53,0.44,4.94,1.78
		c4.88,4.65,10.7,5.05,16.83,3.49c5.56-1.41,9.29-5.91,9.66-11.33c0.4-5.96-2.12-9.91-8-12.32c-4.26-1.74-8.6-3.31-12.85-5.06
		c-8.78-3.62-11.94-8.59-10.94-17.03c0.82-6.94,7.65-13.42,15.39-14.56C414.61,520.8,415.73,520.77,416.11,520.74z"/>
	<path class="st0" d="M222.72,521.56c4.06-0.68,6.68,0.57,8.24,4.18c7.3,16.87,14.65,33.72,21.97,50.58c0.26,0.61,0.2,1.42,1.16,1.6
		c7.49-17.18,15.03-34.35,22.44-51.58c1.6-3.72,3.96-5.55,8.5-4.75c-5.42,12.39-10.75,24.6-16.09,36.8
		c-3.86,8.81-7.77,17.59-11.55,26.44c-0.68,1.6-1.37,2.55-3.28,2.47c-1.63-0.07-2.85-0.17-3.63-1.98
		C241.32,564.13,232.07,542.99,222.72,521.56z"/>
	<path class="st0" d="M141.7,554.11c0-9.64,0.02-19.27-0.02-28.91c-0.01-2.17-0.32-4.03,3.03-3.98c3.1,0.04,2.84,1.69,2.83,3.74
		c-0.03,19.55-0.02,39.1-0.02,58.66c0,1.92,0.46,3.71-2.76,3.76c-3.37,0.04-3.1-1.73-3.09-3.94
		C141.73,573.66,141.7,563.89,141.7,554.11z"/>
	<path class="st0" d="M447.95,554.1c0-9.64,0.02-19.28-0.02-28.92c-0.01-2.16-0.37-4.03,3.01-3.98c3.15,0.04,2.81,1.74,2.81,3.75
		c-0.02,19.56-0.01,39.12-0.01,58.68c0,1.9,0.51,3.73-2.74,3.75c-3.35,0.02-3.08-1.72-3.07-3.94
		C447.98,573.66,447.95,563.88,447.95,554.1z"/>
</g>
</svg>
